<svg version="1.1" xmlns="http://www.w3.org/2000/svg" xmlns:xlink="http://www.w3.org/1999/xlink" width="32" height="32" viewBox="0 0 32 32">
<path d="M26.664 6.27c-0.325-0.327-0.854-0.327-1.177 0l-12.399 12.341c-0.325 0.329-0.855 0.329-1.178 0l-5.433-5.532c-0.161-0.164-0.371-0.245-0.583-0.246-0.214-0.001-0.431 0.080-0.594 0.246l-2.401 2.158c-0.16 0.164-0.246 0.369-0.246 0.583 0 0.215 0.087 0.44 0.247 0.603l5.478 5.749c0.324 0.328 0.855 0.861 1.178 1.186l2.355 2.374c0.324 0.325 0.853 0.325 1.178 0l15.93-15.902c0.325-0.326 0.325-0.862 0-1.188l-2.356-2.373z"></path>
</svg>
