<?xml version="1.0" encoding="utf-8"?>
<!-- Generator: Adobe Illustrator 15.0.2, SVG Export Plug-In  -->
<!DOCTYPE svg PUBLIC "-//W3C//DTD SVG 1.1//EN" "http://www.w3.org/Graphics/SVG/1.1/DTD/svg11.dtd" [
	<!ENTITY ns_flows "http://ns.adobe.com/Flows/1.0/">
]>
<svg version="1.1"
	 xmlns="http://www.w3.org/2000/svg" xmlns:xlink="http://www.w3.org/1999/xlink" xmlns:a="http://ns.adobe.com/AdobeSVGViewerExtensions/3.0/"
	 x="0px" y="0px" width="23px" height="22px" viewBox="0 0 23 22" enable-background="new 0 0 23 22" xml:space="preserve">
<defs>
</defs>
<path fill-rule="evenodd" clip-rule="evenodd" d="M21.582,21.551c-0.586,0.585-1.536,0.585-2.122,0l-5.238-5.235
	C12.748,17.372,10.948,18,9,18c-4.962,0-9-4.038-9-9c0-4.963,4.038-9,9-9s9,4.037,9,9c0,1.934-0.619,3.723-1.662,5.192l5.243,5.24
	C22.167,20.017,22.167,20.965,21.582,21.551z M9,2.996C5.689,2.996,2.996,5.689,2.996,9c0,3.311,2.693,6.004,6.004,6.004
	S15.004,12.311,15.004,9C15.004,5.689,12.311,2.996,9,2.996z"/>
</svg>
