<?xml version="1.0" encoding="utf-8"?><svg xmlns="http://www.w3.org/2000/svg" xmlns:xlink="http://www.w3.org/1999/xlink"><symbol viewBox="0 0 32 32" id="check" xmlns="http://www.w3.org/2000/svg"><path d="M26.664 6.27a.829.829 0 0 0-1.177 0L13.088 18.611a.826.826 0 0 1-1.178 0l-5.433-5.532a.825.825 0 0 0-1.177 0l-2.401 2.158a.83.83 0 0 0-.246.583c0 .215.087.44.247.603l5.478 5.749c.324.328.855.861 1.178 1.186l2.355 2.374a.834.834 0 0 0 1.178 0L29.019 9.83a.846.846 0 0 0 0-1.188l-2.356-2.373z"/></symbol><symbol viewBox="0 0 45.437 45.437" id="empty" xmlns="http://www.w3.org/2000/svg"/></svg>